PathFileType	4	(X/Y/Z)	C:/Users/opensim2020/Desktop/walking_exp_matlab/subject03_walking11_straight_03.trc	
DataRate	CameraRate	NumFrames	NumMarkers	Units	OrigDataRate	OrigDataStartFrame	OrigNumFrames	
100.00	100.00	5	46	mm	100.00	2977	380	
Frame#	Time	LFHD			RFHD			LBHD			RBHD			C7			T10			CLAV			STRN			RBAK			LSHO			LUPA			LELB			LFRM			LWRA			LWRB			LFIN			RSHO			RUPA			RELB			RFRM			RWRA			RWRB			RFIN			LASI			RASI			LPSI			RPSI			LTHI			LKNE			LTIB			LANK			LHEE			LTOE			RTHI			RKNE			RTIB			RANK			RHEE			RTOE			*39			*40			*41			*42			*43			*44			*45			
		X1	Y1	Z1	X2	Y2	Z2	X3	Y3	Z3	X4	Y4	Z4	X5	Y5	Z5	X6	Y6	Z6	X7	Y7	Z7	X8	Y8	Z8	X9	Y9	Z9	X10	Y10	Z10	X11	Y11	Z11	X12	Y12	Z12	X13	Y13	Z13	X14	Y14	Z14	X15	Y15	Z15	X16	Y16	Z16	X17	Y17	Z17	X18	Y18	Z18	X19	Y19	Z19	X20	Y20	Z20	X21	Y21	Z21	X22	Y22	Z22	X23	Y23	Z23	X24	Y24	Z24	X25	Y25	Z25	X26	Y26	Z26	X27	Y27	Z27	X28	Y28	Z28	X29	Y29	Z29	X30	Y30	Z30	X31	Y31	Z31	X32	Y32	Z32	X33	Y33	Z33	X34	Y34	Z34	X35	Y35	Z35	X36	Y36	Z36	X37	Y37	Z37	X38	Y38	Z38	X39	Y39	Z39	X40	Y40	Z40	X41	Y41	Z41	X42	Y42	Z42	X43	Y43	Z43	X44	Y44	Z44	X45	Y45	Z45	X46	Y46	Z46	

238	2.370	1369.40820	577.83557	1625.66956	1501.45142	571.56091	1626.99365	1369.45251	459.87671	1560.24402	1500.32520	458.95316	1562.39001	1429.87891	442.47079	1415.07617	1437.44373	404.54376	1102.83838	1425.15735	565.11469	1337.90820	1424.53223	603.96124	1171.74146	1535.41821	391.71323	1246.59631	1270.45544	512.86371	1371.85632	1210.46851	480.46286	1172.13159	1205.77417	474.52936	1047.80054	1212.98425	489.27670	918.21515	1250.16675	497.56528	800.61670	1198.28601	474.66263	805.64032	1213.98389	481.54919	721.58569	1586.26172	530.45947	1365.51941	1663.20667	556.34711	1147.83972	1676.41833	591.07312	1040.76672	1672.17065	640.51044	913.19135	1628.81738	690.10559	830.59686	1674.82410	665.50116	816.00598	1660.10791	707.05945	755.83466	1324.20862	578.35632	941.65436	1561.10486	569.19873	933.18353	1365.41223	413.88171	962.13257	1515.56775	409.01224	967.41571	1279.70361	572.94293	642.90240	1324.55981	618.63232	471.63455	1319.55481	605.24109	277.75372	1357.92981	628.26050	69.65014	1394.44897	589.84949	34.93682	1380.87158	781.08234	37.82093	1600.15649	472.54810	642.08746	1573.41931	453.69156	462.73517	1578.11755	325.88919	313.16122	1533.87878	202.35521	132.64651	1483.28430	149.58063	126.12968	1506.49365	309.67432	34.51869	1421.15283	483.78555	1669.30383																		 
239	2.380	1368.04700	585.99994	1626.82251	1500.43115	580.09509	1628.78833	1368.08813	467.85239	1561.68274	1498.94214	466.82172	1564.13269	1428.52258	450.35739	1416.07532	1435.99707	413.20209	1103.85901	1424.09692	573.21124	1339.46704	1423.62756	612.78180	1173.55725	1534.26563	400.10596	1247.65881	1269.43445	521.36096	1373.43982	1209.20801	490.90585	1173.49768	1204.71826	485.91965	1049.29517	1211.66541	501.34229	919.74841	1248.53931	509.87735	801.99652	1196.45435	487.26630	807.22803	1212.29822	494.11148	722.98981	1585.12134	538.14655	1367.08325	1661.58508	563.78711	1149.13086	1674.59009	597.30084	1041.70093	1670.67004	645.58063	913.68237	1627.52490	694.49316	830.45032	1673.58728	669.69263	816.26202	1658.75525	710.50891	755.32294	1322.76892	587.52972	943.15436	1559.53931	578.13336	934.56482	1363.96179	423.20352	963.73279	1514.09338	418.09476	968.69348	1278.70361	578.96643	643.49561	1323.44641	623.23285	472.02463	1319.26794	607.87219	277.90594	1358.28174	628.57605	69.78220	1394.58484	589.96826	35.04509	1380.93115	781.50983	37.55445	1599.94507	483.44186	642.53314	1574.68457	467.22144	462.79785	1579.13989	336.25876	315.80414	1535.02100	208.70593	138.40984	1483.94348	156.20781	134.22598	1506.57300	310.65302	34.64093	1414.23926	490.84775	1669.02673																		 
240	2.390	1366.66492	594.08234	1627.73853	1499.04333	588.13202	1630.06226	1366.80664	475.74704	1562.97644	1497.59387	474.65811	1565.73413	1427.24268	458.11325	1416.91980	1434.30188	421.98898	1104.71460	1423.18555	581.32153	1340.94324	1422.67566	621.51361	1175.22327	1533.08752	408.45547	1248.55750	1268.48267	529.74408	1374.92981	1207.97961	501.36209	1174.87793	1203.48486	497.47302	1050.59216	1210.38367	513.59174	921.29828	1246.98792	522.56091	803.50494	1194.66626	500.28748	808.71313	1210.50500	507.10144	724.34387	1583.91089	545.72906	1368.68140	1659.86243	570.71924	1150.19849	1672.88745	603.46991	1042.57239	1669.29980	650.58685	914.09308	1626.36523	698.88831	830.23004	1672.48572	673.85071	816.36060	1657.71362	713.86804	754.69928	1321.25415	596.44446	944.32611	1557.91382	586.90955	935.84161	1362.51599	431.97598	965.32513	1512.49927	426.97235	969.92908	1278.04761	584.54797	643.77747	1322.46655	627.62415	471.84024	1319.12500	610.36676	277.99207	1358.67297	628.83441	69.78590	1394.81482	590.09869	35.12307	1381.12012	781.88721	37.29369	1599.91467	494.61929	642.86609	1576.15784	481.48251	462.69055	1580.16211	347.68048	318.26318	1536.12903	215.82326	144.26544	1484.64771	163.95151	142.49699	1506.48291	311.83490	34.86510	1412.75305	499.10330	1670.36194																		 
241	2.400	1365.31860	602.08905	1628.46289	1497.70239	596.11584	1631.13647	1365.53162	483.51563	1564.09778	1496.27844	482.41199	1567.14233	1426.04578	465.76520	1417.58582	1432.51379	430.52328	1105.26233	1422.30103	589.37012	1342.22656	1421.78442	630.12396	1176.69470	1531.77832	416.64386	1249.19617	1267.54114	538.16675	1376.27405	1206.72339	511.84064	1176.09692	1202.33582	508.73465	1051.79382	1208.94434	526.01337	922.66913	1245.40979	535.45288	804.76129	1192.91650	513.66028	809.95490	1208.68530	520.40179	725.52704	1582.80530	553.18121	1369.94836	1658.51050	577.90515	1151.25476	1671.24036	609.56885	1043.25916	1668.06604	655.52759	914.36627	1625.41699	703.24713	829.84729	1671.58215	677.92651	816.43921	1656.51550	716.84229	753.69177	1319.74365	605.24384	945.23822	1556.24561	595.52289	937.01929	1360.83911	441.24509	966.33856	1510.74451	435.60474	970.92505	1277.69482	589.83160	643.84668	1321.61365	631.92499	471.86871	1318.91626	612.76160	278.02591	1359.03467	629.08282	69.83292	1395.02319	590.15155	35.16266	1381.32935	782.14532	37.07032	1599.83569	506.08261	642.97363	1577.63599	496.30856	462.38617	1581.35095	360.04599	320.61185	1537.52856	224.10103	149.98981	1485.62000	172.82516	150.85887	1506.26685	313.28046	35.30317																					 
242	2.410	1364.08337	610.11017	1628.98767	1496.37927	603.99072	1631.96692	1364.36780	491.27203	1564.97949	1495.06091	490.05484	1568.36353	1424.76257	473.33710	1418.02185	1430.60303	439.07230	1105.76501	1421.45288	597.27032	1343.20569	1420.89294	638.57111	1177.91479	1530.37549	424.68884	1249.46667	1266.66125	546.51654	1377.41150	1205.40405	522.27374	1177.18958	1200.93274	520.59351	1052.95752	1207.46545	538.61230	923.85681	1243.79529	548.59076	805.86383	1191.40918	526.93469	811.02271	1206.80164	534.13568	726.50885	1581.78528	560.43988	1370.93335	1657.08105	584.76306	1151.97375	1669.69812	615.58203	1043.73511	1666.96436	660.46729	914.42554	1624.66956	707.57159	829.26093	1670.73792	681.96667	816.24420	1655.74048	720.22852	753.00348	1318.16418	613.79620	945.72437	1554.58228	603.89825	938.02820	1359.16736	449.97186	967.23022	1508.99622	443.90717	971.65808	1277.20935	595.34259	644.00787	1320.49158	636.42627	471.61322	1318.60278	615.26013	278.04517	1359.25916	629.31158	69.77016	1395.10059	590.22308	35.17593	1381.41150	782.14954	36.68175	1599.62695	517.85449	642.80017	1578.97632	511.51904	461.88577	1582.59253	373.17648	322.63733	1538.99805	233.47621	155.40755	1486.83936	182.80414	159.01393	1506.17712	314.95950	35.75264	1409.87720	515.40796	1672.44397																		 
